<svg xmlns="http://www.w3.org/2000/svg" xmlns:xlink="http://www.w3.org/1999/xlink" viewBox="0,0,256,256" width="48px" height="48px"><g fill-opacity="0" fill="#dddddd" fill-rule="nonzero" stroke="none" stroke-width="1" stroke-linecap="butt" stroke-linejoin="miter" stroke-miterlimit="10" stroke-dasharray="" stroke-dashoffset="0" font-family="none" font-weight="none" font-size="none" text-anchor="none" style="mix-blend-mode: normal"><path d="M0,256v-256h256v256z" id="bgRectangle"></path></g><g fill="none" fill-rule="nonzero" stroke="none" stroke-width="1" stroke-linecap="butt" stroke-linejoin="miter" stroke-miterlimit="10" stroke-dasharray="" stroke-dashoffset="0" font-family="none" font-weight="none" font-size="none" text-anchor="none" style="mix-blend-mode: normal"><g transform="scale(5.33333,5.33333)"><path d="M10.19,43.993c5,0 3.146,0.164 7.645,0.16c3.752,-0.004 5.49,-0.348 8.18,-0.195c2.228,0.127 3.598,0.077 5.83,0.123c3.752,0.078 9.32,1.059 11.482,-1.738c1.367,-1.768 1.236,-4.792 1.344,-6.964c0.108,-2.172 -0.378,-5.738 -0.222,-7.907c0.439,-6.082 -0.475,-6.14 -0.246,-11.774c0.083,-2.056 0.275,-8.6 -1.013,-10.205c-1.24,-1.545 -3.227,-2.06 -6.598,-2.017c-4.447,0.057 -7.87,0.134 -12.317,0.111c-1.699,-0.009 -3.553,-0.098 -5.253,-0.106c-1.371,-0.007 -4.528,0.257 -5.899,0.279c-1.275,0.02 -6.118,0.435 -7.447,1.95c-2.814,3.208 -2.143,10.432 -2.16,10.968c-0.161,5.172 0.35,12.527 0.338,15.177c-0.016,3.513 -0.001,5.052 0.335,7.138c0.485,3.003 2.092,5.193 6.001,5" fill="#f58420"></path><path d="M23.231,33.29c1.262,0.02 2.423,-0.028 2.999,-0.851c0.323,-0.463 0.387,-1.05 0.53,-1.597c0.667,-2.555 1.296,-2.975 2.248,-4.293c1.001,-1.387 2.304,-2.746 2.904,-4.347c0.543,-1.449 0.69,-2.49 0.785,-4.034c0.065,-1.051 -0.148,-2.675 -0.527,-3.657c-1.214,-3.141 -4.08,-4.383 -5.294,-4.889c-1.396,-0.582 -2.803,-0.653 -4.633,-0.368c-1.494,0.233 -3.16,0.732 -4.419,1.569c-3.425,2.277 -3.543,4.88 -3.645,6.832c-0.116,2.221 -0.034,3.671 1.141,5.857c0.564,1.049 2.588,3.623 2.88,3.918c1.155,1.167 1.075,1.861 1.44,3.462c0.115,0.503 0.265,1.668 0.857,2.083c0.203,0.142 0.46,0.173 0.708,0.189c0.675,0.042 1.351,0.084 2.026,0.126" fill="#febf10"></path><path d="M37.241,44.813c-1.074,0 -2.173,-0.065 -3.23,-0.128c-0.765,-0.046 -1.5,-0.09 -2.177,-0.104c-0.774,-0.017 -1.444,-0.021 -2.083,-0.025c-1.183,-0.008 -2.3,-0.015 -3.765,-0.099c-1.45,-0.084 -2.637,-0.018 -4.008,0.059c-1.144,0.063 -2.439,0.135 -4.143,0.137c-2.226,0.003 -2.895,-0.036 -3.615,-0.077c-0.731,-0.04 -1.486,-0.083 -4.02,-0.083c-3.675,0.175 -5.896,-1.644 -6.505,-5.42c-0.351,-2.174 -0.358,-3.784 -0.342,-7.221c0.005,-0.95 -0.061,-2.546 -0.136,-4.393c-0.136,-3.335 -0.305,-7.484 -0.202,-10.797c0.002,-0.051 -0.005,-0.168 -0.012,-0.34c-0.234,-5.255 0.538,-8.936 2.297,-10.942c1.702,-1.939 7.755,-2.118 7.815,-2.119c0.611,-0.01 1.583,-0.068 2.591,-0.13c1.252,-0.074 2.535,-0.146 3.318,-0.149c0.853,0.005 1.745,0.029 2.638,0.054c0.884,0.024 1.769,0.049 2.615,0.053c3.39,0.019 6.127,-0.023 9.297,-0.069l3.011,-0.042c3.678,-0.059 5.701,0.592 6.994,2.204c1.219,1.518 1.284,6.568 1.124,10.538c-0.105,2.585 0.034,3.984 0.169,5.339c0.161,1.622 0.314,3.154 0.076,6.451c-0.08,1.102 0.014,2.619 0.104,4.086c0.084,1.351 0.17,2.747 0.117,3.81c-0.016,0.319 -0.026,0.656 -0.037,1.005c-0.065,2.052 -0.146,4.605 -1.41,6.24c-1.37,1.771 -3.852,2.162 -6.481,2.162zM24.618,43.419c0.454,0 0.923,0.012 1.425,0.041c1.44,0.082 2.494,0.089 3.715,0.097c0.643,0.005 1.317,0.009 2.098,0.025c0.688,0.015 1.437,0.059 2.214,0.104c3.399,0.203 7.254,0.431 8.862,-1.648c1.065,-1.379 1.141,-3.753 1.201,-5.661c0.012,-0.354 0.022,-0.697 0.039,-1.022c0.05,-1.007 -0.035,-2.375 -0.117,-3.698c-0.093,-1.5 -0.188,-3.051 -0.104,-4.22c0.232,-3.211 0.084,-4.702 -0.073,-6.28c-0.138,-1.388 -0.281,-2.823 -0.174,-5.479c0.211,-5.214 -0.127,-8.904 -0.903,-9.871c-1.077,-1.342 -2.878,-1.881 -6.201,-1.83l-3.01,0.042c-3.174,0.046 -5.914,0.085 -9.317,0.069c-0.853,-0.005 -1.745,-0.029 -2.638,-0.054c-0.884,-0.024 -1.769,-0.049 -2.615,-0.053c-0.707,0.018 -2.016,0.074 -3.253,0.148c-1.024,0.062 -2.012,0.12 -2.635,0.131c-1.494,0.023 -5.946,0.488 -7.08,1.78c-1.088,1.24 -2.327,4.024 -2.048,10.239c0.009,0.21 0.015,0.353 0.013,0.415c-0.103,3.276 0.066,7.406 0.201,10.725c0.076,1.859 0.142,3.465 0.137,4.438c-0.017,3.61 0.006,5.053 0.328,7.058c0.522,3.238 2.309,4.734 5.482,4.58l0.024,-0.001c2.57,0 3.342,0.043 4.087,0.085c0.705,0.04 1.36,0.069 3.559,0.075c1.676,-0.002 2.958,-0.072 4.088,-0.135c0.935,-0.052 1.786,-0.1 2.695,-0.1z" fill="#010101"></path><path d="M23.583,33.793c-0.119,0 -0.238,-0.001 -0.359,-0.003l-0.024,-0.001l-2.027,-0.127c-0.32,-0.019 -0.66,-0.066 -0.963,-0.278c-0.671,-0.471 -0.874,-1.477 -1.008,-2.143l-0.05,-0.238c-0.071,-0.31 -0.125,-0.586 -0.175,-0.839c-0.202,-1.028 -0.303,-1.544 -1.133,-2.383c-0.295,-0.298 -2.371,-2.926 -2.966,-4.033c-1.185,-2.204 -1.328,-3.669 -1.199,-6.119c0.107,-2.054 0.253,-4.819 3.867,-7.223c1.586,-1.054 3.574,-1.484 4.618,-1.646c2.013,-0.312 3.477,-0.193 4.902,0.399c1.165,0.486 4.258,1.778 5.569,5.171c0.386,1.002 0.631,2.701 0.559,3.869c-0.098,1.586 -0.25,2.668 -0.814,4.177c-0.469,1.249 -1.316,2.33 -2.136,3.376c-0.286,0.364 -0.569,0.726 -0.832,1.09c-0.183,0.253 -0.354,0.474 -0.516,0.683c-0.661,0.853 -1.139,1.469 -1.654,3.443c-0.031,0.123 -0.06,0.248 -0.087,0.373c-0.1,0.444 -0.212,0.949 -0.516,1.384c-0.652,0.933 -1.8,1.068 -3.056,1.068zM23.251,32.79c1.117,0.021 2.137,-0.021 2.57,-0.639c0.189,-0.272 0.271,-0.64 0.358,-1.028c0.03,-0.137 0.062,-0.273 0.097,-0.407c0.567,-2.173 1.125,-2.893 1.831,-3.804c0.155,-0.201 0.319,-0.413 0.495,-0.656c0.27,-0.374 0.562,-0.746 0.855,-1.121c0.773,-0.986 1.572,-2.006 1.986,-3.109c0.521,-1.391 0.661,-2.4 0.753,-3.888c0.063,-1.029 -0.157,-2.575 -0.494,-3.447c-1.157,-2.995 -3.964,-4.167 -5.021,-4.608c-1.243,-0.518 -2.547,-0.616 -4.363,-0.334c-1.663,0.259 -3.162,0.788 -4.22,1.49c-3.195,2.125 -3.319,4.501 -3.42,6.409c-0.122,2.335 0.002,3.621 1.08,5.628c0.543,1.01 2.56,3.563 2.796,3.803c1.042,1.054 1.193,1.825 1.403,2.894c0.048,0.243 0.1,0.51 0.168,0.809l0.056,0.264c0.09,0.447 0.258,1.28 0.602,1.521c0.099,0.069 0.274,0.088 0.449,0.099z" fill="#010101"></path><path d="M24.947,21.825c-0.763,0 -1.521,-0.059 -2.267,-0.117c-1.104,-0.086 -2.242,-0.175 -3.332,-0.06c-0.271,0.025 -0.521,-0.17 -0.55,-0.444c-0.029,-0.274 0.17,-0.521 0.444,-0.55c1.182,-0.127 2.367,-0.032 3.515,0.057c1.359,0.106 2.643,0.207 3.912,-0.026c0.266,-0.045 0.531,0.13 0.582,0.402c0.05,0.271 -0.13,0.532 -0.402,0.582c-0.632,0.116 -1.268,0.156 -1.902,0.156z" fill="#010101"></path><path d="M23.219,30.961c-0.021,0 -0.042,-0.001 -0.063,-0.004c-0.273,-0.034 -0.468,-0.284 -0.434,-0.559c0.077,-0.618 -0.051,-2.551 -0.128,-3.705c-0.037,-0.568 -0.066,-1.013 -0.065,-1.172c0.002,-0.626 0.032,-1.324 0.062,-2.023c0.03,-0.685 0.06,-1.37 0.062,-1.985c0.001,-0.275 0.225,-0.498 0.5,-0.498c0.001,0 0.001,0 0.002,0c0.275,0.001 0.499,0.226 0.498,0.502c-0.002,0.627 -0.032,1.326 -0.062,2.024c-0.03,0.686 -0.06,1.37 -0.062,1.984c-0.001,0.149 0.028,0.567 0.063,1.102c0.111,1.678 0.205,3.237 0.122,3.896c-0.031,0.253 -0.247,0.438 -0.495,0.438z" fill="#010101"></path><path d="M23.986,35.833c-0.395,0 -0.767,-0.013 -1.13,-0.039c-0.199,-0.015 -0.398,-0.033 -0.599,-0.052c-0.638,-0.06 -1.239,-0.116 -1.821,-0.031c-0.261,0.029 -0.527,-0.15 -0.566,-0.424c-0.039,-0.272 0.15,-0.526 0.424,-0.566c0.701,-0.101 1.391,-0.035 2.057,0.025c0.193,0.019 0.386,0.036 0.578,0.05c0.904,0.067 1.879,0.045 3.152,-0.068c0.255,-0.022 0.517,0.178 0.542,0.454c0.024,0.274 -0.179,0.518 -0.454,0.542c-0.826,0.073 -1.534,0.109 -2.183,0.109z" fill="#010101"></path><path d="M21.015,37.996c-0.271,0 -0.495,-0.218 -0.5,-0.49c-0.005,-0.276 0.215,-0.505 0.49,-0.51l4.462,-0.083c0.264,0.003 0.504,0.215 0.509,0.491c0.005,0.275 -0.215,0.504 -0.491,0.509l-4.46,0.083c-0.004,0 -0.007,0 -0.01,0z" fill="#010101"></path><path d="M22.436,40.047c-0.263,0 -0.482,-0.203 -0.499,-0.469c-0.018,-0.275 0.192,-0.513 0.468,-0.53l1.949,-0.124c0.306,-0.026 0.514,0.192 0.53,0.468c0.018,0.275 -0.192,0.513 -0.468,0.53l-1.949,0.124c-0.011,0.001 -0.022,0.001 -0.031,0.001z" fill="#010101"></path></g></g></svg>